<svg width="342" height="191" viewBox="0 0 342 191" fill="none" xmlns="http://www.w3.org/2000/svg">
<mask id="mask0_409_24081" style="mask-type:alpha" maskUnits="userSpaceOnUse" x="60" y="0" width="254" height="191">
<path d="M61 11.8531H258L272.5 78.3531L309.5 102.353L272.5 183.353L80 176.353L61 11.8531Z" fill="#F59D9D"/>
<path d="M257.264 13.2462C261.302 19.1852 255.166 21.6383 238.856 20.6057C222.551 19.6525 200.472 17.927 172.617 15.4291C144.769 13.0107 114.5 13.0106 81.8106 15.4286L72.0275 19.3911L68.8063 19.6293L61.6445 12.0021C61.2974 7.30953 64.9475 3.68076 72.5949 1.11582C75.3902 3.2282 106.466 4.40821 165.822 4.65587C225.185 4.98306 254.984 6.73736 255.219 9.91877L255.475 13.3786L257.264 13.2462Z" fill="#F59D9D"/>
<path fill-rule="evenodd" clip-rule="evenodd" d="M257.767 12.2063L258.091 12.6839C259.159 14.2543 259.721 15.8267 259.355 17.2894C258.981 18.7882 257.731 19.8015 256.062 20.4689C254.384 21.1396 252.092 21.5443 249.244 21.7246C246.383 21.9057 242.897 21.8634 238.796 21.6039L238.793 21.6037L238.856 20.6057M172.617 15.4291C144.769 13.0107 114.5 13.0106 81.8106 15.4286L72.0275 19.3911L68.8063 19.6293L61.6445 12.0021C61.2974 7.30953 64.9475 3.68076 72.5949 1.11582C75.3902 3.2282 106.466 4.40821 165.822 4.65587C225.185 4.98306 254.984 6.73736 255.219 9.91877L255.475 13.3786L257.264 13.2462M257.767 12.2063L256.398 12.3075ZM256.398 12.3075L256.216 9.845C256.171 9.23558 255.784 8.81063 255.435 8.54434C255.076 8.27007 254.61 8.04679 254.092 7.85489C253.048 7.46807 251.557 7.12509 249.661 6.81353C245.854 6.18787 240.21 5.65779 232.752 5.21871C217.825 4.33994 195.513 3.8195 165.828 3.65588L165.827 3.65588C136.152 3.53206 113.557 3.17519 98.0362 2.58583C90.2737 2.29108 84.2953 1.93867 80.0907 1.52998C77.9864 1.32543 76.3457 1.10857 75.1559 0.881921C74.5604 0.76848 74.0958 0.655916 73.7511 0.547243C73.3851 0.431832 73.2328 0.344461 73.1978 0.318007L72.777 0L72.2769 0.167728C68.3819 1.47414 65.3953 3.08498 63.4168 5.05192C61.4066 7.05032 60.45 9.40897 60.6472 12.0759L60.6733 12.4287L68.404 20.6618L72.2576 20.3768L82.0407 16.4143C114.625 14.0112 144.787 14.0162 172.529 16.4252" fill="#F59D9D"/>
<path d="M273.264 182.246C277.302 188.185 271.166 190.638 254.856 189.606C238.551 188.653 216.472 186.927 188.617 184.429C160.769 182.011 130.5 182.011 97.8106 184.429L88.0275 188.391L84.8063 188.629L77.6445 181.002C77.2974 176.31 80.9475 172.681 88.5949 170.116C91.3902 172.228 122.466 173.408 181.822 173.656C241.185 173.983 270.984 175.737 271.219 178.919L271.475 182.379L273.264 182.246Z" fill="#F59D9D"/>
<path fill-rule="evenodd" clip-rule="evenodd" d="M273.767 181.206L274.091 181.684C275.159 183.254 275.721 184.827 275.355 186.289C274.981 187.788 273.731 188.802 272.062 189.469C270.384 190.14 268.092 190.544 265.244 190.725C262.383 190.906 258.897 190.863 254.796 190.604C254.795 190.604 254.794 190.604 254.793 190.604L254.856 189.606M188.617 184.429C160.769 182.011 130.5 182.011 97.8106 184.429L88.0275 188.391L84.8063 188.629L77.6445 181.002C77.2974 176.31 80.9475 172.681 88.5949 170.116C91.3902 172.228 122.466 173.408 181.822 173.656C241.185 173.983 270.984 175.737 271.219 178.919L271.475 182.379L273.264 182.246M273.767 181.206L272.398 181.308ZM272.398 181.308L272.216 178.845C272.171 178.236 271.784 177.811 271.435 177.544C271.076 177.27 270.61 177.047 270.092 176.855C269.048 176.468 267.557 176.125 265.661 175.814C261.854 175.188 256.21 174.658 248.752 174.219C233.825 173.34 211.513 172.819 181.828 172.656L181.827 172.656C152.152 172.532 129.557 172.175 114.036 171.586C106.274 171.291 100.295 170.939 96.0907 170.53C93.9864 170.325 92.3457 170.109 91.1559 169.882C90.5604 169.768 90.0958 169.656 89.7511 169.547C89.3851 169.432 89.2328 169.344 89.1978 169.318L88.777 169L88.2769 169.168C84.3819 170.474 81.3953 172.085 79.4168 174.052C77.4066 176.05 76.45 178.409 76.6472 181.076L76.6733 181.429L84.404 189.662L88.2576 189.377L98.0407 185.414C130.625 183.011 160.787 183.016 188.529 185.425" fill="#F59D9D"/>
<path d="M270.486 188.25C266.976 188.94 267.051 185.65 270.71 178.381C274.331 171.098 279.434 161.321 286.018 149.05C292.565 136.766 298.477 122.901 303.753 107.456L303.849 102.2L304.369 100.678L309.261 98.8876C311.479 99.6451 312.428 102.026 312.109 106.03C310.596 106.898 303.986 120.902 292.28 148.042C280.536 175.17 273.912 188.477 272.409 187.963L270.774 187.405L270.486 188.25Z" fill="#F59D9D"/>
<path fill-rule="evenodd" clip-rule="evenodd" d="M271.245 189.12L270.678 189.231C269.7 189.424 268.691 189.401 267.922 188.818C267.123 188.214 266.888 187.245 266.91 186.277C266.932 185.3 267.214 184.113 267.695 182.753C268.18 181.381 268.89 179.772 269.816 177.933C269.816 177.932 269.816 177.932 269.817 177.931L270.71 178.381M286.018 149.05C292.565 136.766 298.477 122.901 303.753 107.456L303.849 102.2L304.369 100.678L309.261 98.8876C311.479 99.6451 312.428 102.026 312.109 106.03C310.596 106.898 303.986 120.902 292.28 148.042C280.536 175.17 273.912 188.477 272.409 187.963L270.774 187.405L270.486 188.25M271.245 189.12L271.397 188.674ZM271.397 188.674L272.086 188.909C272.569 189.075 272.997 188.907 273.244 188.767C273.502 188.621 273.735 188.411 273.939 188.195C274.354 187.757 274.823 187.109 275.341 186.293C276.385 184.649 277.74 182.148 279.399 178.814C282.724 172.135 287.324 162.007 293.197 148.439L293.198 148.438C299.05 134.871 303.624 124.597 306.921 117.61C308.571 114.115 309.895 111.456 310.896 109.623C311.398 108.705 311.809 108.011 312.133 107.528C312.295 107.287 312.426 107.113 312.525 106.997C312.587 106.924 312.623 106.892 312.633 106.882L313.064 106.635L313.106 106.109C313.272 104.032 313.12 102.262 312.565 100.871C311.994 99.4381 310.998 98.424 309.585 97.9413L309.25 97.8269L303.577 99.9034L302.852 102.026L302.756 107.281C297.507 122.624 291.633 136.389 285.136 148.579" fill="#F59D9D"/>
</mask>
<g mask="url(#mask0_409_24081)">
<rect x="45" y="-14.147" width="287" height="226" fill="url(#paint0_linear_409_24081)"/>
</g>
<path d="M99.4755 23.2993C101.494 26.1047 103.441 27.5073 105.318 27.5073C110.889 30.5549 113.674 35.1564 113.674 41.312C114.461 50.6564 108.719 61.8677 96.4482 74.9458C96.0244 77.7108 95.1969 79.0933 93.9658 79.0933C92.8356 79.0933 92.2705 78.4071 92.2705 77.0347H91.9072L94.3896 66.5601C94.9749 58.0028 95.5501 46.9227 96.1152 33.3198V28.7485C96.1152 25.1157 97.2353 23.2993 99.4755 23.2993ZM96.9326 69.4663H97.2959C102.14 66.5802 106.358 59.9907 109.95 49.6978L110.828 42.5532V40.0103C109.758 33.0675 106.681 29.5962 101.595 29.5962C99.5966 29.5962 98.5976 31.5438 98.5976 35.439L96.9326 69.4663ZM130.393 41.8872C134.853 43.1991 137.084 45.4292 137.084 48.5776V49.8188C137.084 56.0552 134.288 60.3742 128.698 62.7759H125.852V63.6538C125.852 68.659 127.093 72.1506 129.576 74.1284H130.878C132.452 74.1284 134.682 71.8983 137.568 67.438L137.931 67.8013H138.385C136.387 74.2394 133.592 77.4585 130 77.4585C126.73 77.4585 124.066 71.7368 122.007 60.2935C121.563 60.2935 121.291 59.5972 121.19 58.2046C122.32 57.3368 123.319 53.714 124.187 47.3364C126.326 43.7036 128.395 41.8872 130.393 41.8872ZM125.368 57.3872C125.61 58.7596 126.044 59.4458 126.67 59.4458H129.213C132.563 57.8716 134.238 54.6626 134.238 49.8188V49.395C133.814 46.63 132.533 45.2476 130.393 45.2476C127.043 45.2476 125.368 49.2941 125.368 57.3872ZM156.83 41.8872C161.291 43.1991 163.521 45.4292 163.521 48.5776V49.8188C163.521 56.0552 160.726 60.3742 155.135 62.7759H152.289V63.6538C152.289 68.659 153.531 72.1506 156.013 74.1284H157.315C158.889 74.1284 161.119 71.8983 164.005 67.438L164.368 67.8013H164.823C162.825 74.2394 160.029 77.4585 156.437 77.4585C153.167 77.4585 150.503 71.7368 148.445 60.2935C148.001 60.2935 147.728 59.5972 147.627 58.2046C148.757 57.3368 149.756 53.714 150.624 47.3364C152.764 43.7036 154.832 41.8872 156.83 41.8872ZM151.805 57.3872C152.047 58.7596 152.481 59.4458 153.107 59.4458H155.65C159 57.8716 160.675 54.6626 160.675 49.8188V49.395C160.251 46.63 158.97 45.2476 156.83 45.2476C153.48 45.2476 151.805 49.2941 151.805 57.3872ZM188.802 23.2993C190.821 26.1047 192.768 27.5073 194.645 27.5073C200.216 30.5549 203.001 35.1564 203.001 41.312C203.788 50.6564 198.046 61.8677 185.775 74.9458C185.351 77.7108 184.524 79.0933 183.293 79.0933C182.162 79.0933 181.597 78.4071 181.597 77.0347H181.234L183.716 66.5601C184.302 58.0028 184.877 46.9227 185.442 33.3198V28.7485C185.442 25.1157 186.562 23.2993 188.802 23.2993ZM186.259 69.4663H186.623C191.466 66.5802 195.685 59.9907 199.277 49.6978L200.155 42.5532V40.0103C199.085 33.0675 196.008 29.5962 190.922 29.5962C188.924 29.5962 187.924 31.5438 187.924 35.439L186.259 69.4663ZM220.204 44.188C222.808 44.188 224.624 47.9217 225.654 55.3892L225.23 55.9038V58.3862C224.523 71.2424 222.293 77.6704 218.539 77.6704L218.085 78.0337H217.661C213.484 77.0851 211.395 71.7772 211.395 62.1099C211.395 50.1619 214.331 44.188 220.204 44.188ZM213.938 60.0513C214.564 69.7993 215.805 74.6733 217.661 74.6733H218.085C220.447 74.6733 221.98 69.658 222.687 59.6274V53.7241C222.687 49.9702 221.446 47.9015 218.963 47.5181C215.613 48.507 213.938 52.6847 213.938 60.0513ZM243.796 44.188C246.399 44.188 248.216 47.9217 249.245 55.3892L248.821 55.9038V58.3862C248.115 71.2424 245.885 77.6704 242.131 77.6704L241.677 78.0337H241.253C237.075 77.0851 234.986 71.7772 234.986 62.1099C234.986 50.1619 237.923 44.188 243.796 44.188ZM237.529 60.0513C238.155 69.7993 239.396 74.6733 241.253 74.6733H241.677C244.038 74.6733 245.572 69.658 246.278 59.6274V53.7241C246.278 49.9702 245.037 47.9015 242.555 47.5181C239.204 48.507 237.529 52.6847 237.529 60.0513Z" fill="#E5E5E5"/>
<path d="M117.791 86.5718C119.229 86.9259 119.948 87.353 119.948 87.853V89.1968C111.177 89.1968 105.937 93.2697 104.229 101.416C101.916 108.77 100.76 114.405 100.76 118.322V126.978C101.906 135.291 104.364 139.447 108.135 139.447C111.573 133.676 113.291 126.936 113.291 119.228V116.978C113.291 113.645 111.573 111.343 108.135 110.072L107.666 108.853C107.666 106.811 110.552 105.655 116.323 105.384C117.093 105.384 117.812 106.093 118.479 107.509L115.416 110.978L116.323 116.603C114.906 134.145 112.02 142.916 107.666 142.916C101.062 139.874 97.76 134.28 97.76 126.134V122.666C97.76 110.395 100.698 99.9468 106.573 91.3218C110.073 88.1551 113.812 86.5718 117.791 86.5718ZM143.193 87.728C146.297 87.8114 147.911 102.145 148.036 130.728L149.38 144.572L147.224 144.947H146.318L145.036 143.666V127.666L144.599 121.197H144.193C137.297 122.051 133.526 123.509 132.88 125.572C131.776 136.051 130.943 141.353 130.38 141.478H128.661L126.911 139.759C128.328 128.801 130.64 116.707 133.849 103.478C136.057 92.5614 139.172 87.3114 143.193 87.728ZM134.286 118.197L136.411 119.853C142.161 118.582 145.036 117.603 145.036 116.916V109.103L145.474 103.478L144.411 99.1343C143.599 95.6759 142.745 93.9468 141.849 93.9468C140.015 93.9468 137.495 102.03 134.286 118.197ZM179.531 86.6968C181.281 87.3843 182.156 88.4155 182.156 89.7905L185.156 134.697V137.728C185.156 139.207 184.729 140.061 183.875 140.291H182.969L181.688 139.447L182.156 132.978V131.634C182.156 119.176 181.281 108.103 179.531 98.4155H179.125C177.375 103.832 175.5 113.332 173.5 126.916L170.875 128.166C169.292 128.166 168.292 124.436 167.875 116.978C164.708 107.374 162.698 102.186 161.844 101.416H161.406L161.844 107.884V115.697C161.844 133.843 160.969 142.916 159.219 142.916H157.938L157.5 140.728L159.219 123.009H158.781L159.219 122.603V116.978C159.219 103.249 158.792 95.4676 157.938 93.6343C158.5 92.3009 159.083 91.5926 159.688 91.5093H160.969C162.406 91.5926 164.135 95.9051 166.156 104.447C167.594 107.176 169.167 112.082 170.875 119.166H172.219L177.781 92.7905V91.5093L177.406 88.8843C177.406 87.7384 178.115 87.1655 179.531 87.1655V86.6968ZM206.557 86.4468C208.016 86.8426 208.745 87.2905 208.745 87.7905V89.0718C208.745 89.9676 205.412 91.0405 198.745 92.2905L198.432 107.384V109.572C198.432 110.155 198.839 110.447 199.651 110.447L207.901 109.572L208.276 110.009V110.447C208.276 111.593 204.995 112.749 198.432 113.916L196.714 132.916V133.759C196.714 136.905 197.86 138.478 200.151 138.478L211.745 133.759L212.495 136.384C212.891 136.801 208.328 138.655 198.807 141.947C195.995 141.947 194.141 139.061 193.245 133.291L195.37 114.728L194.089 112.572C195.235 110.384 195.807 108.655 195.807 107.384L195.37 96.4468C195.37 93.5718 195.068 92.1343 194.464 92.1343C194.464 89.8426 198.495 87.9468 206.557 86.4468ZM238.334 85.7593C239.355 85.7593 241.084 86.7593 243.521 88.7593V90.478H242.677V90.9468C240.365 89.4884 238.49 88.7593 237.052 88.7593H234.865C228.99 92.0509 231.063 106.343 241.084 131.634L241.521 133.759C241.521 139.509 238.219 144.28 231.615 148.072L228.521 148.916C224.23 147.686 222.084 145.509 222.084 142.384C222.417 140.988 222.834 140.291 223.334 140.291H224.24C225.177 143.999 226.177 145.853 227.24 145.853C233.865 145.853 237.625 141.822 238.521 133.759V131.634C226.105 103.093 225.032 87.9259 235.302 86.1343L238.334 85.7593Z" fill="#E5E5E5"/>
<path d="M117.791 86.5718L118.03 85.6008L117.913 85.5718H117.791V86.5718ZM119.948 89.1968V90.1968H120.948V89.1968H119.948ZM104.229 101.416L105.183 101.715L105.197 101.669L105.207 101.621L104.229 101.416ZM100.76 126.978H99.76V127.047L99.7694 127.115L100.76 126.978ZM108.135 139.447V140.447H108.703L108.994 139.959L108.135 139.447ZM108.135 110.072L107.202 110.431L107.364 110.853L107.788 111.01L108.135 110.072ZM107.666 108.853H106.666V109.039L106.733 109.212L107.666 108.853ZM116.323 105.384V104.384H116.299L116.276 104.385L116.323 105.384ZM118.479 107.509L119.228 108.171L119.663 107.678L119.384 107.083L118.479 107.509ZM115.416 110.978L114.667 110.316L114.354 110.67L114.429 111.137L115.416 110.978ZM116.323 116.603L117.319 116.684L117.329 116.563L117.31 116.444L116.323 116.603ZM107.666 142.916L107.248 143.824L107.447 143.916H107.666V142.916ZM106.573 91.3218L105.902 90.5802L105.813 90.6603L105.746 90.7588L106.573 91.3218ZM117.552 87.5427C118.237 87.7114 118.664 87.8786 118.898 88.0174C119.164 88.1756 118.948 88.146 118.948 87.853H120.948C120.948 87.0601 120.372 86.5669 119.919 86.298C119.434 86.0098 118.783 85.7863 118.03 85.6008L117.552 87.5427ZM118.948 87.853V89.1968H120.948V87.853H118.948ZM119.948 88.1968C115.411 88.1968 111.67 89.2509 108.826 91.4619C105.975 93.6778 104.14 96.9662 103.25 101.21L105.207 101.621C106.026 97.719 107.664 94.8981 110.053 93.041C112.449 91.1792 115.713 90.1968 119.948 90.1968V88.1968ZM103.275 101.116C100.955 108.492 99.76 114.247 99.76 118.322H101.76C101.76 114.563 102.877 109.047 105.183 101.715L103.275 101.116ZM99.76 118.322V126.978H101.76V118.322H99.76ZM99.7694 127.115C100.349 131.32 101.273 134.591 102.602 136.839C103.953 139.123 105.795 140.447 108.135 140.447V138.447C106.704 138.447 105.431 137.693 104.324 135.82C103.195 133.912 102.317 130.949 101.751 126.841L99.7694 127.115ZM108.994 139.959C112.537 134.011 114.291 127.089 114.291 119.228H112.291C112.291 126.783 110.608 133.341 107.276 138.935L108.994 139.959ZM114.291 119.228V116.978H112.291V119.228H114.291ZM114.291 116.978C114.291 115.132 113.812 113.504 112.803 112.153C111.801 110.81 110.332 109.818 108.482 109.134L107.788 111.01C109.375 111.596 110.485 112.391 111.201 113.35C111.911 114.301 112.291 115.491 112.291 116.978H114.291ZM109.068 109.713L108.6 108.494L106.733 109.212L107.202 110.431L109.068 109.713ZM108.666 108.853C108.666 108.441 108.91 107.901 110.202 107.383C111.487 106.868 113.517 106.517 116.369 106.383L116.276 104.385C113.357 104.522 111.059 104.885 109.458 105.526C107.865 106.165 106.666 107.223 106.666 108.853H108.666ZM116.323 106.384C116.372 106.384 116.505 106.399 116.738 106.628C116.98 106.867 117.266 107.281 117.574 107.935L119.384 107.083C119.025 106.321 118.618 105.673 118.142 105.203C117.655 104.724 117.044 104.384 116.323 104.384V106.384ZM117.729 106.847L114.667 110.316L116.166 111.64L119.228 108.171L117.729 106.847ZM114.429 111.137L115.335 116.762L117.31 116.444L116.404 110.819L114.429 111.137ZM115.326 116.523C114.619 125.272 113.551 131.755 112.146 136.025C111.442 138.164 110.677 139.675 109.885 140.634C109.108 141.576 108.37 141.916 107.666 141.916V143.916C109.139 143.916 110.395 143.158 111.428 141.908C112.446 140.674 113.307 138.896 114.046 136.65C115.526 132.149 116.609 125.476 117.319 116.684L115.326 116.523ZM108.085 142.007C104.944 140.561 102.633 138.532 101.098 135.931C99.558 133.322 98.76 130.073 98.76 126.134H96.76C96.76 130.341 97.6131 133.962 99.3754 136.947C101.142 139.94 103.784 142.228 107.248 143.824L108.085 142.007ZM98.76 126.134V122.666H96.76V126.134H98.76ZM98.76 122.666C98.76 110.559 101.656 100.316 107.399 91.8847L105.746 90.7588C99.7392 99.5773 96.76 110.23 96.76 122.666H98.76ZM107.243 92.0633C110.596 89.0302 114.105 87.5718 117.791 87.5718V85.5718C113.519 85.5718 109.549 87.28 105.902 90.5802L107.243 92.0633ZM143.193 87.728L143.089 88.7227L143.127 88.7266L143.166 88.7277L143.193 87.728ZM148.036 130.728L147.036 130.732L147.036 130.779L147.041 130.825L148.036 130.728ZM149.38 144.572L149.551 145.557L150.465 145.398L150.375 144.475L149.38 144.572ZM147.224 144.947V145.947H147.31L147.395 145.932L147.224 144.947ZM146.318 144.947L145.61 145.654L145.903 145.947H146.318V144.947ZM145.036 143.666H144.036V144.08L144.329 144.373L145.036 143.666ZM145.036 127.666H146.036V127.632L146.034 127.598L145.036 127.666ZM144.599 121.197L145.596 121.129L145.533 120.197H144.599V121.197ZM144.193 121.197V120.197H144.131L144.07 120.204L144.193 121.197ZM132.88 125.572L131.926 125.273L131.896 125.368L131.886 125.467L132.88 125.572ZM130.38 141.478V142.478H130.49L130.597 142.454L130.38 141.478ZM128.661 141.478L127.961 142.191L128.252 142.478H128.661V141.478ZM126.911 139.759L125.92 139.631L125.856 140.124L126.211 140.473L126.911 139.759ZM133.849 103.478L134.821 103.714L134.825 103.695L134.829 103.676L133.849 103.478ZM134.286 118.197L133.305 118.002L133.185 118.607L133.672 118.986L134.286 118.197ZM136.411 119.853L135.797 120.642L136.168 120.931L136.627 120.829L136.411 119.853ZM145.036 109.103L144.039 109.025L144.036 109.064V109.103H145.036ZM145.474 103.478L146.471 103.556L146.483 103.396L146.445 103.24L145.474 103.478ZM144.411 99.1343L143.438 99.363L143.44 99.3719L144.411 99.1343ZM143.166 88.7277C143.166 88.7277 143.166 88.7277 143.167 88.7278C143.167 88.7278 143.168 88.7281 143.171 88.7291C143.177 88.7309 143.193 88.7367 143.219 88.7533C143.274 88.7884 143.366 88.8664 143.486 89.0269C143.733 89.3564 144.011 89.9168 144.291 90.7735C144.848 92.4766 145.336 95.0879 145.738 98.6525C146.539 105.764 146.974 116.449 147.036 130.732L149.036 130.724C148.974 116.424 148.539 105.651 147.725 98.4286C147.32 94.8265 146.814 92.0524 146.192 90.1513C145.882 89.2059 145.523 88.4096 145.087 87.8276C144.651 87.2457 144.035 86.7503 143.219 86.7284L143.166 88.7277ZM147.041 130.825L148.385 144.668L150.375 144.475L149.032 130.631L147.041 130.825ZM149.209 143.587L147.052 143.962L147.395 145.932L149.551 145.557L149.209 143.587ZM147.224 143.947H146.318V145.947H147.224V143.947ZM147.025 144.24L145.743 142.958L144.329 144.373L145.61 145.654L147.025 144.24ZM146.036 143.666V127.666H144.036V143.666H146.036ZM146.034 127.598L145.596 121.129L143.601 121.264L144.039 127.733L146.034 127.598ZM144.599 120.197H144.193V122.197H144.599V120.197ZM144.07 120.204C140.59 120.635 137.829 121.226 135.832 121.998C133.892 122.749 132.394 123.778 131.926 125.273L133.834 125.871C134.012 125.304 134.722 124.572 136.553 123.864C138.327 123.178 140.9 122.612 144.315 122.189L144.07 120.204ZM131.886 125.467C131.334 130.702 130.852 134.627 130.439 137.252C130.232 138.569 130.046 139.533 129.884 140.164C129.802 140.485 129.735 140.681 129.69 140.783C129.666 140.836 129.666 140.824 129.697 140.783C129.712 140.763 129.858 140.57 130.163 140.502L130.597 142.454C130.972 142.371 131.191 142.121 131.28 142.005C131.386 141.868 131.462 141.719 131.518 141.594C131.63 141.341 131.729 141.02 131.821 140.663C132.008 139.937 132.205 138.897 132.415 137.563C132.835 134.886 133.322 130.92 133.874 125.677L131.886 125.467ZM130.38 140.478H128.661V142.478H130.38V140.478ZM129.362 140.765L127.612 139.046L126.211 140.473L127.961 142.191L129.362 140.765ZM127.903 139.887C129.314 128.972 131.619 116.915 134.821 103.714L132.877 103.242C129.662 116.499 127.342 128.629 125.92 139.631L127.903 139.887ZM134.829 103.676C135.926 98.2529 137.23 94.3426 138.701 91.8633C140.174 89.3804 141.65 88.5735 143.089 88.7227L143.296 86.7334C140.715 86.4659 138.623 88.0756 136.981 90.8428C135.337 93.6134 133.98 97.7865 132.869 103.28L134.829 103.676ZM133.672 118.986L135.797 120.642L137.026 119.064L134.901 117.408L133.672 118.986ZM136.627 120.829C139.511 120.192 141.711 119.62 143.202 119.112C143.941 118.86 144.554 118.609 144.999 118.351C145.219 118.223 145.445 118.068 145.628 117.874C145.804 117.688 146.036 117.363 146.036 116.916H144.036C144.036 116.779 144.073 116.672 144.107 116.603C144.139 116.538 144.171 116.505 144.175 116.5C144.178 116.497 144.135 116.54 143.996 116.621C143.722 116.779 143.256 116.981 142.558 117.219C141.174 117.69 139.061 118.243 136.195 118.877L136.627 120.829ZM146.036 116.916V109.103H144.036V116.916H146.036ZM146.033 109.181L146.471 103.556L144.477 103.4L144.039 109.025L146.033 109.181ZM146.445 103.24L145.383 98.8967L143.44 99.3719L144.502 103.716L146.445 103.24ZM145.385 98.9056C144.973 97.1532 144.536 95.7683 144.058 94.8008C143.82 94.3188 143.545 93.8853 143.216 93.5597C142.881 93.229 142.421 92.9468 141.849 92.9468V94.9468C141.724 94.9468 141.707 94.8807 141.81 94.9823C141.918 95.089 142.076 95.3039 142.265 95.6865C142.641 96.4481 143.037 97.657 143.438 99.363L145.385 98.9056ZM141.849 92.9468C141.237 92.9468 140.756 93.2816 140.419 93.6213C140.073 93.9707 139.758 94.4434 139.464 94.9882C138.874 96.0836 138.265 97.6716 137.628 99.7116C136.352 103.805 134.911 109.91 133.305 118.002L135.267 118.391C136.87 110.317 138.294 104.296 139.538 100.307C140.162 98.3053 140.727 96.8621 141.225 95.9366C141.476 95.471 141.684 95.1859 141.839 95.03C142.003 94.8646 142.002 94.9468 141.849 94.9468V92.9468ZM179.531 86.6968L179.897 85.766L178.531 85.2295V86.6968H179.531ZM182.156 89.7905H181.156V89.8239L181.158 89.8572L182.156 89.7905ZM185.156 134.697H186.156V134.663L186.154 134.63L185.156 134.697ZM183.875 140.291V141.291H184.007L184.134 141.256L183.875 140.291ZM182.969 140.291L182.419 141.126L182.669 141.291H182.969V140.291ZM181.688 139.447L180.69 139.375L180.648 139.959L181.138 140.282L181.688 139.447ZM182.156 132.978L183.154 133.05L183.156 133.014V132.978H182.156ZM179.531 98.4155L180.515 98.2378L180.367 97.4155H179.531V98.4155ZM179.125 98.4155V97.4155H178.397L178.173 98.1081L179.125 98.4155ZM173.5 126.916L173.93 127.818L174.412 127.589L174.489 127.061L173.5 126.916ZM170.875 128.166V129.166H171.101L171.305 129.068L170.875 128.166ZM167.875 116.978L168.873 116.922L168.866 116.79L168.825 116.665L167.875 116.978ZM161.844 101.416L162.514 100.673L162.228 100.416H161.844V101.416ZM161.406 101.416V100.416H160.336L160.409 101.483L161.406 101.416ZM161.844 107.884H162.844V107.85L162.841 107.817L161.844 107.884ZM157.938 142.916L156.957 143.112L157.118 143.916H157.938V142.916ZM157.5 140.728L156.505 140.631L156.49 140.779L156.519 140.924L157.5 140.728ZM159.219 123.009L160.214 123.106L160.32 122.009H159.219V123.009ZM158.781 123.009L158.101 122.276L156.235 124.009H158.781V123.009ZM159.219 122.603L159.899 123.336L160.219 123.039V122.603H159.219ZM157.938 93.6343L157.016 93.2456L156.844 93.6544L157.031 94.0566L157.938 93.6343ZM159.688 91.5093V90.5093H159.619L159.551 90.5187L159.688 91.5093ZM160.969 91.5093L161.027 90.511L160.998 90.5093H160.969V91.5093ZM166.156 104.447L165.183 104.677L165.212 104.801L165.271 104.913L166.156 104.447ZM170.875 119.166L169.903 119.4L170.088 120.166H170.875V119.166ZM172.219 119.166V120.166H173.03L173.197 119.372L172.219 119.166ZM177.781 92.7905L178.76 92.9969L178.781 92.8948V92.7905H177.781ZM177.781 91.5093H178.781V91.4382L178.771 91.3679L177.781 91.5093ZM177.406 88.8843H176.406V88.9553L176.416 89.0257L177.406 88.8843ZM179.531 87.1655V88.1655H180.531V87.1655H179.531ZM179.166 87.6275C179.944 87.9332 180.44 88.2826 180.737 88.6328C181.019 88.9645 181.156 89.3357 181.156 89.7905H183.156C183.156 88.8704 182.856 88.0385 182.263 87.3389C181.685 86.6578 180.869 86.1478 179.897 85.766L179.166 87.6275ZM181.158 89.8572L184.158 134.763L186.154 134.63L183.154 89.7239L181.158 89.8572ZM184.156 134.697V137.728H186.156V134.697H184.156ZM184.156 137.728C184.156 138.389 184.058 138.798 183.942 139.031C183.844 139.225 183.743 139.291 183.616 139.325L184.134 141.256C184.861 141.061 185.4 140.585 185.73 139.925C186.041 139.304 186.156 138.546 186.156 137.728H184.156ZM183.875 139.291H182.969V141.291H183.875V139.291ZM183.519 139.455L182.237 138.612L181.138 140.282L182.419 141.126L183.519 139.455ZM182.685 139.519L183.154 133.05L181.159 132.906L180.69 139.375L182.685 139.519ZM183.156 132.978V131.634H181.156V132.978H183.156ZM183.156 131.634C183.156 119.131 182.278 107.997 180.515 98.2378L178.547 98.5933C180.284 108.209 181.156 119.221 181.156 131.634H183.156ZM179.531 97.4155H179.125V99.4155H179.531V97.4155ZM178.173 98.1081C176.395 103.612 174.511 113.187 172.511 126.77L174.489 127.061C176.489 113.478 178.355 104.052 180.077 98.723L178.173 98.1081ZM173.07 126.013L170.445 127.263L171.305 129.068L173.93 127.818L173.07 126.013ZM170.875 127.166C170.875 127.166 170.876 127.166 170.877 127.166C170.878 127.166 170.879 127.166 170.879 127.166C170.88 127.166 170.88 127.166 170.88 127.166C170.88 127.166 170.878 127.166 170.874 127.164C170.869 127.162 170.862 127.158 170.853 127.152C170.812 127.125 170.729 127.056 170.619 126.897C170.392 126.569 170.141 125.998 169.903 125.11C169.431 123.347 169.081 120.634 168.873 116.922L166.877 117.034C167.086 120.781 167.444 123.661 167.972 125.628C168.234 126.604 168.556 127.432 168.975 128.036C169.398 128.647 170.024 129.166 170.875 129.166V127.166ZM168.825 116.665C167.24 111.857 165.939 108.14 164.925 105.523C164.418 104.216 163.977 103.167 163.602 102.388C163.415 102 163.238 101.664 163.072 101.391C162.916 101.135 162.73 100.869 162.514 100.673L161.174 102.158C161.171 102.155 161.235 102.22 161.364 102.432C161.484 102.628 161.629 102.899 161.8 103.255C162.142 103.966 162.561 104.959 163.06 106.246C164.056 108.816 165.344 112.495 166.925 117.291L168.825 116.665ZM161.844 100.416H161.406V102.416H161.844V100.416ZM160.409 101.483L160.846 107.952L162.841 107.817L162.404 101.348L160.409 101.483ZM160.844 107.884V115.697H162.844V107.884H160.844ZM160.844 115.697C160.844 124.762 160.625 131.528 160.192 136.015C159.975 138.267 159.708 139.894 159.407 140.936C159.254 141.465 159.111 141.774 159.005 141.931C158.891 142.1 158.949 141.916 159.219 141.916V143.916C159.926 143.916 160.394 143.447 160.663 143.05C160.94 142.639 161.153 142.098 161.328 141.492C161.682 140.267 161.963 138.491 162.183 136.207C162.625 131.621 162.844 124.777 162.844 115.697H160.844ZM159.219 141.916H157.938V143.916H159.219V141.916ZM158.918 142.719L158.481 140.532L156.519 140.924L156.957 143.112L158.918 142.719ZM158.495 140.825L160.214 123.106L158.223 122.913L156.505 140.631L158.495 140.825ZM159.219 122.009H158.781V124.009H159.219V122.009ZM159.462 123.742L159.899 123.336L158.538 121.87L158.101 122.276L159.462 123.742ZM160.219 122.603V116.978H158.219V122.603H160.219ZM160.219 116.978C160.219 110.107 160.112 104.708 159.897 100.79C159.789 98.8327 159.654 97.2305 159.489 95.9924C159.329 94.7913 159.129 93.8232 158.844 93.212L157.031 94.0566C157.173 94.362 157.347 95.0541 157.507 96.2566C157.662 97.4222 157.794 98.9671 157.9 100.9C158.112 104.764 158.219 110.12 158.219 116.978H160.219ZM158.859 94.023C159.122 93.4004 159.363 92.9881 159.569 92.7387C159.779 92.4831 159.871 92.4934 159.824 92.4999L159.551 90.5187C158.9 90.6084 158.398 91.0147 158.025 91.4673C157.647 91.9263 157.316 92.5348 157.016 93.2456L158.859 94.023ZM159.688 92.5093H160.969V90.5093H159.688V92.5093ZM160.911 92.5076C160.789 92.5006 160.927 92.4452 161.29 92.9493C161.617 93.4025 161.995 94.1301 162.416 95.1783C163.252 97.2643 164.176 100.42 165.183 104.677L167.129 104.217C166.116 99.9318 165.165 96.6605 164.272 94.434C163.828 93.326 163.378 92.4259 162.913 91.7802C162.484 91.1853 161.867 90.5597 161.027 90.511L160.911 92.5076ZM165.271 104.913C166.645 107.521 168.195 112.318 169.903 119.4L171.847 118.931C170.138 111.846 168.542 106.831 167.041 103.981L165.271 104.913ZM170.875 120.166H172.219V118.166H170.875V120.166ZM173.197 119.372L178.76 92.9969L176.803 92.5842L171.24 118.959L173.197 119.372ZM178.781 92.7905V91.5093H176.781V92.7905H178.781ZM178.771 91.3679L178.396 88.7429L176.416 89.0257L176.791 91.6507L178.771 91.3679ZM178.406 88.8843C178.406 88.5283 178.506 88.4217 178.566 88.3727C178.667 88.291 178.932 88.1655 179.531 88.1655V86.1655C178.714 86.1655 177.916 86.3265 177.309 86.8177C176.661 87.3417 176.406 88.0944 176.406 88.8843H178.406ZM180.531 87.1655V86.6968H178.531V87.1655H180.531ZM206.557 86.4468L206.819 85.4817L206.599 85.4219L206.375 85.4636L206.557 86.4468ZM198.745 92.2905L198.561 91.3077L197.762 91.4574L197.745 92.2698L198.745 92.2905ZM198.432 107.384L197.433 107.364L197.432 107.374V107.384H198.432ZM199.651 110.447V111.447H199.704L199.757 111.441L199.651 110.447ZM207.901 109.572L208.661 108.921L208.318 108.522L207.796 108.577L207.901 109.572ZM208.276 110.009H209.276V109.639L209.036 109.358L208.276 110.009ZM198.432 113.916L198.257 112.931L197.505 113.065L197.437 113.825L198.432 113.916ZM196.714 132.916L195.718 132.825L195.714 132.87V132.916H196.714ZM200.151 138.478V139.478H200.347L200.528 139.404L200.151 138.478ZM211.745 133.759L212.707 133.485L212.4 132.413L211.368 132.833L211.745 133.759ZM212.495 136.384L211.533 136.659L211.601 136.895L211.77 137.073L212.495 136.384ZM198.807 141.947V142.947H198.975L199.134 142.892L198.807 141.947ZM193.245 133.291L192.251 133.177L192.236 133.311L192.257 133.444L193.245 133.291ZM195.37 114.728L196.364 114.842L196.402 114.507L196.23 114.217L195.37 114.728ZM194.089 112.572L193.203 112.108L192.944 112.602L193.229 113.083L194.089 112.572ZM195.807 107.384H196.807V107.364L196.807 107.344L195.807 107.384ZM195.37 96.4468H194.37V96.4668L194.371 96.4867L195.37 96.4468ZM194.464 92.1343H193.464V93.1343H194.464V92.1343ZM206.296 87.4119C206.992 87.6008 207.431 87.7818 207.675 87.9317C207.957 88.105 207.745 88.081 207.745 87.7905H209.745C209.745 87.0001 209.169 86.5021 208.722 86.2275C208.236 85.9294 207.582 85.6886 206.819 85.4817L206.296 87.4119ZM207.745 87.7905V89.0718H209.745V87.7905H207.745ZM207.745 89.0718C207.745 88.9683 207.77 88.8846 207.795 88.8285C207.808 88.8016 207.819 88.7822 207.827 88.7702C207.831 88.7642 207.835 88.7598 207.837 88.7569C207.839 88.7541 207.84 88.7527 207.84 88.7527C207.84 88.7526 207.839 88.7538 207.837 88.7562C207.835 88.7585 207.831 88.7619 207.827 88.7662C207.817 88.775 207.803 88.787 207.783 88.802C207.744 88.8323 207.688 88.8706 207.611 88.9158C207.29 89.1055 206.748 89.3358 205.939 89.5964C204.333 90.1131 201.883 90.6847 198.561 91.3077L198.929 93.2734C202.273 92.6464 204.823 92.0565 206.551 91.5002C207.408 91.2244 208.116 90.9404 208.629 90.6379C208.884 90.4873 209.137 90.3051 209.337 90.0793C209.538 89.8523 209.745 89.5111 209.745 89.0718H207.745ZM197.745 92.2698L197.433 107.364L199.432 107.405L199.745 92.3112L197.745 92.2698ZM197.432 107.384V109.572H199.432V107.384H197.432ZM197.432 109.572C197.432 110.124 197.643 110.674 198.154 111.04C198.604 111.363 199.155 111.447 199.651 111.447V109.447C199.505 109.447 199.408 109.433 199.351 109.42C199.294 109.406 199.294 109.397 199.32 109.416C199.353 109.439 199.391 109.481 199.416 109.533C199.438 109.581 199.432 109.602 199.432 109.572H197.432ZM199.757 111.441L208.007 110.566L207.796 108.577L199.546 109.452L199.757 111.441ZM207.142 110.223L207.517 110.66L209.036 109.358L208.661 108.921L207.142 110.223ZM207.276 110.009V110.447H209.276V110.009H207.276ZM207.276 110.447C207.276 110.225 207.426 110.251 207.087 110.489C206.786 110.7 206.27 110.953 205.483 111.23C203.921 111.781 201.524 112.35 198.257 112.931L198.608 114.9C201.903 114.314 204.429 113.722 206.148 113.116C207.001 112.816 207.715 112.492 208.235 112.127C208.716 111.789 209.276 111.241 209.276 110.447H207.276ZM197.437 113.825L195.718 132.825L197.71 133.006L199.428 114.006L197.437 113.825ZM195.714 132.916V133.759H197.714V132.916H195.714ZM195.714 133.759C195.714 135.424 196.012 136.853 196.765 137.887C197.561 138.98 198.75 139.478 200.151 139.478V137.478C199.261 137.478 198.731 137.19 198.381 136.71C197.989 136.171 197.714 135.24 197.714 133.759H195.714ZM200.528 139.404L212.122 134.685L211.368 132.833L199.774 137.552L200.528 139.404ZM210.783 134.034L211.533 136.659L213.457 136.11L212.707 133.485L210.783 134.034ZM211.77 137.073C211.662 136.96 211.566 136.798 211.532 136.595C211.498 136.399 211.535 136.235 211.575 136.128C211.614 136.025 211.662 135.957 211.686 135.925C211.712 135.892 211.732 135.874 211.734 135.872C211.737 135.869 211.715 135.889 211.648 135.933C211.585 135.974 211.498 136.026 211.384 136.088C210.915 136.344 210.128 136.7 208.994 137.161C206.738 138.078 203.238 139.357 198.481 141.002L199.134 142.892C203.898 141.245 207.439 139.951 209.746 139.014C210.893 138.548 211.768 138.157 212.341 137.844C212.614 137.696 212.887 137.528 213.088 137.344C213.178 137.261 213.35 137.089 213.447 136.831C213.502 136.686 213.542 136.488 213.503 136.26C213.464 136.026 213.352 135.835 213.22 135.696L211.77 137.073ZM198.807 140.947C197.819 140.947 196.938 140.471 196.149 139.242C195.332 137.972 194.673 135.968 194.233 133.137L192.257 133.444C192.713 136.384 193.428 138.708 194.466 140.323C195.531 141.98 196.983 142.947 198.807 142.947V140.947ZM194.239 133.404L196.364 114.842L194.376 114.614L192.251 133.177L194.239 133.404ZM196.23 114.217L194.948 112.061L193.229 113.083L194.51 115.239L196.23 114.217ZM194.975 113.036C196.137 110.816 196.807 108.907 196.807 107.384H194.807C194.807 108.403 194.332 109.953 193.203 112.108L194.975 113.036ZM196.807 107.344L196.369 96.4068L194.371 96.4867L194.808 107.424L196.807 107.344ZM196.37 96.4468C196.37 94.9925 196.295 93.8301 196.122 93.0067C196.037 92.6031 195.913 92.1982 195.706 91.8705C195.491 91.5299 195.088 91.1343 194.464 91.1343V93.1343C194.142 93.1343 194.002 92.9184 194.014 92.9371C194.034 92.9688 194.099 93.1029 194.165 93.4181C194.294 94.0322 194.37 95.026 194.37 96.4468H196.37ZM195.464 92.1343C195.464 91.8844 195.565 91.5726 195.94 91.1833C196.327 90.7816 196.963 90.3454 197.913 89.8986C199.812 89.0055 202.735 88.175 206.74 87.4299L206.375 85.4636C202.317 86.2185 199.194 87.086 197.062 88.0887C195.996 88.5899 195.12 89.151 194.499 89.7962C193.866 90.4537 193.464 91.2383 193.464 92.1343H195.464ZM238.334 85.7593V84.7593H238.272L238.211 84.7668L238.334 85.7593ZM243.521 88.7593H244.521V88.2863L244.156 87.9862L243.521 88.7593ZM243.521 90.478V91.478H244.521V90.478H243.521ZM242.677 90.478V89.478H241.677V90.478H242.677ZM242.677 90.9468L242.144 91.7926L243.677 92.7596V90.9468H242.677ZM234.865 88.7593V87.7593H234.604L234.376 87.8869L234.865 88.7593ZM241.084 131.634L242.063 131.433L242.046 131.347L242.013 131.266L241.084 131.634ZM241.521 133.759H242.521V133.657L242.501 133.558L241.521 133.759ZM231.615 148.072L231.878 149.037L232.002 149.003L232.113 148.939L231.615 148.072ZM228.521 148.916L228.246 149.877L228.515 149.954L228.784 149.88L228.521 148.916ZM222.084 142.384L221.111 142.152L221.084 142.267V142.384H222.084ZM224.24 140.291L225.209 140.045L225.019 139.291H224.24V140.291ZM238.521 133.759L239.515 133.87L239.521 133.815V133.759H238.521ZM238.521 131.634H239.521V131.426L239.438 131.235L238.521 131.634ZM235.302 86.1343L235.18 85.1418L235.155 85.1449L235.131 85.1492L235.302 86.1343ZM238.334 86.7593C238.568 86.7593 239.063 86.8935 239.896 87.3749C240.694 87.8369 241.689 88.5495 242.887 89.5324L244.156 87.9862C242.916 86.969 241.827 86.1817 240.897 85.6436C240 85.125 239.12 84.7593 238.334 84.7593V86.7593ZM242.521 88.7593V90.478H244.521V88.7593H242.521ZM243.521 89.478H242.677V91.478H243.521V89.478ZM241.677 90.478V90.9468H243.677V90.478H241.677ZM243.211 90.1009C240.86 88.6184 238.784 87.7593 237.052 87.7593V89.7593C238.196 89.7593 239.87 90.3585 242.144 91.7926L243.211 90.1009ZM237.052 87.7593H234.865V89.7593H237.052V87.7593ZM234.376 87.8869C232.581 88.8928 231.486 90.7001 230.972 93.0792C230.46 95.4427 230.498 98.462 231.024 102.09C232.077 109.354 235.135 119.336 240.154 132.003L242.013 131.266C237.011 118.641 234.023 108.832 233.003 101.803C232.493 98.2857 232.487 95.5341 232.926 93.5019C233.362 91.4851 234.212 90.2716 235.354 89.6317L234.376 87.8869ZM240.104 131.836L240.542 133.961L242.501 133.558L242.063 131.433L240.104 131.836ZM240.521 133.759C240.521 139.036 237.526 143.525 231.117 147.205L232.113 148.939C238.913 145.035 242.521 139.983 242.521 133.759H240.521ZM231.352 147.107L228.258 147.951L228.784 149.88L231.878 149.037L231.352 147.107ZM228.797 147.954C226.745 147.367 225.314 146.581 224.405 145.659C223.521 144.762 223.084 143.691 223.084 142.384H221.084C221.084 144.203 221.719 145.783 222.981 147.063C224.218 148.318 226.006 149.235 228.246 149.877L228.797 147.954ZM223.056 142.617C223.215 141.954 223.374 141.546 223.505 141.327C223.651 141.083 223.617 141.291 223.334 141.291V139.291C222.551 139.291 222.059 139.848 221.788 140.301C221.502 140.78 221.286 141.419 221.111 142.152L223.056 142.617ZM223.334 141.291H224.24V139.291H223.334V141.291ZM223.27 140.536C223.746 142.416 224.254 143.901 224.813 144.937C225.092 145.455 225.411 145.911 225.786 146.249C226.17 146.594 226.66 146.853 227.24 146.853V144.853C227.289 144.853 227.255 144.88 227.123 144.762C226.983 144.636 226.794 144.397 226.573 143.988C226.132 143.17 225.672 141.873 225.209 140.045L223.27 140.536ZM227.24 146.853C230.769 146.853 233.653 145.77 235.76 143.512C237.842 141.28 239.054 138.018 239.515 133.87L237.527 133.649C237.092 137.563 235.977 140.348 234.298 142.147C232.644 143.92 230.336 144.853 227.24 144.853V146.853ZM239.521 133.759V131.634H237.521V133.759H239.521ZM239.438 131.235C233.238 116.983 229.925 106.187 229.402 98.7825C229.14 95.0805 229.585 92.3444 230.605 90.4626C231.596 88.6354 233.18 87.5197 235.474 87.1194L235.131 85.1492C232.29 85.6447 230.156 87.0967 228.847 89.5091C227.568 91.8669 227.132 95.0422 227.407 98.9236C227.956 106.686 231.388 117.744 237.604 132.033L239.438 131.235ZM235.425 87.1267L238.457 86.7517L238.211 84.7668L235.18 85.1418L235.425 87.1267Z" fill="#E5E5E5"/>
<path fill-rule="evenodd" clip-rule="evenodd" d="M256.217 104.275L258.561 103.405C259.109 103.202 259.626 103.193 259.956 103.209C260.316 103.227 260.671 103.287 260.995 103.359C261.641 103.504 262.385 103.749 263.192 104.057C264.724 104.641 266.724 105.546 269.168 106.748C272.657 106.97 275.574 107.438 277.821 108.224C280.109 109.023 282.232 110.344 283.073 112.613C283.485 113.722 283.252 114.899 283.049 115.659C282.811 116.553 282.406 117.579 281.887 118.702C280.903 120.829 279.376 123.576 277.341 126.917C277.228 127.771 276.813 128.469 276.552 128.859C276.039 129.625 275.289 130.409 274.427 131.192L273.797 131.765L267.954 132.239L266.698 128.851C266.317 127.824 266.529 126.861 266.809 126.195C267.086 125.536 267.515 124.948 267.955 124.444C268.772 123.506 269.956 122.49 271.411 121.406C272.707 119.43 273.553 117.856 274.018 116.654C274.115 116.402 274.19 116.182 274.247 115.99L257.127 111.673L256.072 108.828C255.689 107.795 255.751 106.65 256.373 105.641C256.444 105.525 256.52 105.415 256.601 105.31L256.217 104.275Z" fill="#E5E5E5"/>
<path d="M255.306 158.196L256.631 157.967L258.8 160.066C258.981 161.113 258.392 162.23 257.032 163.416C255.766 163.064 254.713 162.231 253.873 160.917L255.306 158.196Z" fill="#E5E5E5"/>
<path d="M264.877 166.721L266.202 166.493L268.372 168.591C268.552 169.639 267.963 170.755 266.603 171.941C265.337 171.589 264.284 170.756 263.444 169.442L264.877 166.721Z" fill="#E5E5E5"/>
<path d="M266.703 159.924L268.046 159.977L269.729 162.483C269.687 163.544 268.878 164.513 267.3 165.389C266.136 164.78 265.28 163.745 264.733 162.285L266.703 159.924Z" fill="#E5E5E5"/>
<path d="M255.792 165.252L256.925 165.297L258.345 167.411C258.31 168.307 257.626 169.124 256.295 169.863C255.313 169.35 254.591 168.477 254.13 167.245L255.792 165.252Z" fill="#E5E5E5"/>
<path d="M264.814 173.513L266.138 173.744L267.472 176.452C267.289 177.499 266.357 178.351 264.677 179.009C263.604 178.25 262.894 177.111 262.547 175.591L264.814 173.513Z" fill="#E5E5E5"/>
<path d="M254.543 171.788L255.817 172.218L256.726 175.096C256.387 176.103 255.337 176.805 253.577 177.201C252.631 176.288 252.101 175.055 251.988 173.499L254.543 171.788Z" fill="#E5E5E5"/>
<path d="M217.001 157.199L218.325 156.973L220.491 159.076C220.67 160.123 220.079 161.238 218.717 162.422C217.452 162.067 216.4 161.232 215.563 159.917L217.001 157.199Z" fill="#E5E5E5"/>
<path d="M228.394 158.948L229.737 159.003L231.416 161.512C231.372 162.574 230.56 163.541 228.981 164.414C227.818 163.803 226.964 162.767 226.42 161.306L228.394 158.948Z" fill="#E5E5E5"/>
<path d="M224.501 164.973L224.815 166.279L222.861 168.581C221.828 168.829 220.676 168.314 219.404 167.034C219.673 165.748 220.436 164.643 221.693 163.719L224.501 164.973Z" fill="#E5E5E5"/>
<path d="M226.674 170.72L227.997 170.954L229.327 173.665C229.142 174.711 228.208 175.562 226.527 176.216C225.455 175.455 224.748 174.315 224.403 172.794L226.674 170.72Z" fill="#E5E5E5"/>
<path d="M216.265 168.815L217.538 169.246L218.442 172.127C218.101 173.133 217.05 173.832 215.288 174.225C214.345 173.311 213.817 172.076 213.707 170.521L216.265 168.815Z" fill="#E5E5E5"/>
<path d="M183.391 155.235L184.721 155.039L186.837 157.192C186.992 158.243 186.374 159.345 184.985 160.496C183.729 160.112 182.697 159.253 181.891 157.919L183.391 155.235Z" fill="#E5E5E5"/>
<path d="M194.741 157.248L196.082 157.335L197.702 159.882C197.633 160.943 196.8 161.891 195.201 162.727C194.052 162.089 193.223 161.033 192.712 159.559L194.741 157.248Z" fill="#E5E5E5"/>
<path d="M192.747 168.978L194.065 169.242L195.331 171.983C195.121 173.025 194.169 173.853 192.472 174.469C191.419 173.683 190.738 172.526 190.429 170.998L192.747 168.978Z" fill="#E5E5E5"/>
<path d="M182.386 166.83L183.648 167.291L184.485 170.192C184.12 171.19 183.053 171.865 181.283 172.217C180.361 171.281 179.863 170.034 179.788 168.477L182.386 166.83Z" fill="#E5E5E5"/>
<path d="M147.994 154.908L149.259 154.454L151.758 156.148C152.117 157.148 151.729 158.349 150.594 159.752C149.286 159.623 148.106 158.984 147.052 157.835L147.994 154.908Z" fill="#E5E5E5"/>
<path d="M156.734 161.256L157.271 162.488L155.748 165.095C154.774 165.519 153.549 165.212 152.074 164.173C152.115 162.86 152.674 161.639 153.75 160.511L156.734 161.256Z" fill="#E5E5E5"/>
<path d="M159.875 166.537H161.219L163 168.975C163 170.037 162.229 171.037 160.688 171.975C159.5 171.412 158.604 170.412 158 168.975L159.875 166.537Z" fill="#E5E5E5"/>
<path d="M131.334 153.78L132.009 154.942L130.796 157.706C129.877 158.24 128.625 158.076 127.04 157.213C126.93 155.904 127.345 154.627 128.284 153.383L131.334 153.78Z" fill="#E5E5E5"/>
<path d="M122.047 167.569L122.29 168.891L120.215 171.084C119.17 171.276 118.047 170.699 116.846 169.353C117.185 168.083 118.006 167.021 119.31 166.166L122.047 167.569Z" fill="#E5E5E5"/>
<path d="M101.734 160.256L102.271 161.488L100.748 164.095C99.7739 164.519 98.5492 164.212 97.0738 163.173C97.115 161.86 97.6738 160.639 98.7501 159.511L101.734 160.256Z" fill="#E5E5E5"/>
<defs>
<linearGradient id="paint0_linear_409_24081" x1="188.5" y1="-14.147" x2="188.5" y2="211.853" gradientUnits="userSpaceOnUse">
<stop stop-color="#F59D9D"/>
<stop offset="1" stop-color="#DD2D2D"/>
</linearGradient>
</defs>
</svg>
